<svg width="164" height="37" viewBox="0 0 164 37" fill="none" xmlns="http://www.w3.org/2000/svg">
<g clip-path="url(#clip0)">
<path fill-rule="evenodd" clip-rule="evenodd" d="M162.651 12.6151C163.044 12.8219 163.376 13.1323 163.613 13.5143C163.848 13.878 163.984 14.2997 164.006 14.7353C164.028 15.171 163.935 15.6046 163.738 15.9912C163.532 16.3833 163.227 16.7121 162.855 16.9436C162.483 17.1752 162.057 17.3011 161.622 17.3084H159.493H159.119V21.4076V33.0014C159.119 34.2683 158.696 35.1632 157.807 35.7297C157.366 36.0162 156.854 36.1695 156.331 36.1721C155.73 36.1751 155.144 35.9721 154.669 35.5954C154.193 35.2188 153.855 34.6902 153.707 34.094C153.611 33.6746 153.566 33.2445 153.573 32.8137V20.6133V17.3151H153.163H146.734H144.208H143.664V21.7897V33.0851C143.664 34.6739 142.844 35.8068 141.47 36.1017C141.106 36.1795 140.731 36.1812 140.367 36.1069C140.003 36.0326 139.657 35.8838 139.351 35.6693C139.049 35.4577 138.793 35.1848 138.599 34.8676C138.405 34.5504 138.277 34.1958 138.222 33.8259C138.174 33.4425 138.154 33.056 138.163 32.6695V20.5865V17.3151H137.999H136.323C134.831 17.295 133.732 16.2325 133.699 14.865C133.667 13.4975 134.795 12.3881 136.271 12.3445C136.792 12.3177 137.314 12.3177 137.839 12.3177H138.203V11.7546L138.201 11.5896V11.5891V11.5886V11.5881V11.5875C138.195 10.7581 138.189 9.90393 138.222 9.04972C138.272 7.47366 138.646 5.926 139.321 4.5081C140.614 1.8401 142.86 0.341867 146.003 0.0502648C146.629 -0.00545516 147.258 -0.0166546 147.885 0.0167472C148.227 0.0245808 148.564 0.101202 148.878 0.242233C149.191 0.383265 149.473 0.585942 149.71 0.838687C149.946 1.09143 150.131 1.38929 150.255 1.71524C150.379 2.0412 150.438 2.38886 150.431 2.73837C150.437 3.43929 150.174 4.11488 149.699 4.62044C149.224 5.12601 148.574 5.42136 147.889 5.44324H147.305H146.905C145.373 5.50357 144.454 6.21079 144.012 7.66545C143.613 8.96489 143.638 10.3243 143.664 11.7601V11.7603L143.664 11.7747V12.3344H144.245H146.229H153.117H153.583V11.0876V6.76718C153.576 5.55384 154.055 4.64552 154.996 4.08578C155.401 3.8405 155.862 3.70857 156.332 3.70327C156.803 3.69798 157.266 3.81951 157.676 4.05561C158.112 4.31097 158.475 4.67941 158.727 5.12373C158.979 5.56805 159.112 6.07251 159.113 6.58618V10.4105V12.1065V12.3378H161.376C161.818 12.3125 162.258 12.4082 162.651 12.6151ZM120.822 16.5945C122.252 16.5945 123.651 17.028 124.84 17.84C126.029 18.6521 126.956 19.8064 127.504 21.1569C128.051 22.5073 128.195 23.9933 127.915 25.427C127.636 26.8606 126.948 28.1775 125.936 29.2111C124.925 30.2447 123.636 30.9486 122.233 31.2337C120.83 31.5189 119.376 31.3725 118.054 30.8132C116.733 30.2538 115.603 29.3065 114.809 28.0911C114.014 26.8757 113.59 25.4468 113.59 23.9851C113.592 22.0258 114.355 20.1475 115.711 18.7621C117.067 17.3767 118.905 16.5972 120.822 16.5945ZM120.822 11.3926C118.385 11.3932 116.003 12.1323 113.977 13.5164C111.951 14.9005 110.372 16.8674 109.439 19.1685C108.507 21.4695 108.264 24.0014 108.74 26.4439C109.215 28.8863 110.389 31.1298 112.113 32.8906C113.836 34.6513 116.032 35.8503 118.422 36.3359C120.813 36.8216 123.29 36.572 125.542 35.6188C127.793 34.6656 129.718 33.0516 131.072 30.9808C132.426 28.91 133.148 26.4755 133.148 23.9851C133.147 20.6456 131.847 17.4436 129.536 15.0828C127.224 12.7221 124.09 11.3959 120.822 11.3959V11.3926ZM83.909 19.7753C83.476 16.8325 82.1837 14.57 80.1665 13.2327C78.0607 11.835 75.2465 11.4864 72.4585 12.2774C71.0897 12.6519 69.8346 13.371 68.8078 14.3689C68.6958 13.7965 68.4107 13.2745 67.9929 12.8765C67.5751 12.4784 67.0456 12.2243 66.479 12.1501C66.1026 12.0894 65.7179 12.1118 65.3507 12.2159C64.9835 12.32 64.6424 12.5032 64.3503 12.7534C64.0292 13.0489 63.7735 13.411 63.6004 13.8157C63.4273 14.2203 63.3408 14.658 63.3466 15.0996C63.3335 15.7945 63.3379 16.4895 63.3423 17.1844C63.3445 17.5319 63.3466 17.8793 63.3466 18.2268V32.817C63.3398 33.0879 63.3518 33.3589 63.3827 33.6281C63.4579 34.3139 63.7739 34.9486 64.2721 35.4145C64.7702 35.8805 65.4168 36.146 66.092 36.162H66.1871C66.9113 36.1401 67.5979 35.8279 68.0987 35.293C68.5995 34.758 68.8743 34.0432 68.8636 33.303V29.6429C68.8636 27.6318 68.8636 25.5437 68.8964 23.4991C68.9094 22.4725 69.081 21.4544 69.4048 20.4825C70.1559 18.3341 72.5831 17.0704 75.1678 17.4659C77.1718 17.781 78.4478 19.477 78.5068 21.8634C78.5658 24.3136 78.5724 26.8106 78.5757 29.2373V32.7131C78.5697 33.0782 78.5883 33.4433 78.6314 33.8057C78.7063 34.286 78.9023 34.7381 79.2002 35.1174C79.4981 35.4967 79.8875 35.7901 80.3302 35.9687C80.7728 36.1474 81.2534 36.205 81.7245 36.1361C82.1956 36.0671 82.641 35.8739 83.0168 35.5755C83.354 35.2869 83.6238 34.9249 83.8066 34.5161C83.9893 34.1073 84.0803 33.6619 84.073 33.2125V21.9104C84.0685 21.1956 84.0136 20.4821 83.909 19.7753ZM28.244 0.0200819C27.8699 -0.0201962 27.4917 0.0204682 27.134 0.139429C26.7763 0.25839 26.4471 0.452982 26.1678 0.710543C25.8611 1.02189 25.6216 1.39533 25.4646 1.8069C25.3075 2.21847 25.2365 2.65905 25.256 3.10034V13.96V32.1768C25.256 32.6561 25.256 33.1522 25.2888 33.6516C25.3213 34.0399 25.4348 34.4167 25.6214 34.7566C25.8081 35.0965 26.0637 35.3917 26.3712 35.6224C26.8396 35.9752 27.4063 36.1654 27.9882 36.1654C28.1834 36.1657 28.3781 36.1443 28.5688 36.1017C29.9824 35.7866 30.7598 34.6806 30.7598 32.9946V3.13386C30.7629 2.86473 30.7454 2.59577 30.7073 2.32944C30.6086 1.71844 30.3123 1.1589 29.8658 0.740257C29.4192 0.321613 28.8482 0.0680431 28.244 0.0200819ZM18.9682 26.2476H17.9842V26.2509H5.63504C6.32712 29.2507 8.37384 31.0171 11.211 31.0171C12.0433 31.0357 12.8698 30.8728 13.6356 30.5394C14.4014 30.2059 15.0889 29.7094 15.6522 29.0832C15.8723 28.8039 16.1458 28.5733 16.4558 28.4053C16.7658 28.2372 17.106 28.1353 17.4558 28.1057C17.8055 28.076 18.1575 28.1193 18.4904 28.2329C18.8233 28.3464 19.1301 28.5279 19.3923 28.7663C19.6545 29.0047 19.8665 29.295 20.0156 29.6196C20.1647 29.9443 20.2477 30.2965 20.2596 30.6549C20.2715 31.0133 20.212 31.3705 20.0847 31.7047C19.9575 32.0389 19.7651 32.3432 19.5193 32.5991C17.6103 35.0627 14.2221 36.1621 11.5062 36.1621H11.3652C7.30456 36.1051 4.19512 34.4694 2.11888 31.3054C0.160719 28.3257 -0.501841 24.1527 0.390319 20.4155C1.14472 17.2448 2.98152 14.7008 5.55632 13.2528C9.29552 11.168 14.76 11.0306 18.555 15.4181C20.4016 17.5598 21.32 20.5395 21.2282 24.0522C21.1986 25.2689 20.2474 26.1939 18.9682 26.2476ZM11.1487 16.9062C8.15736 16.9062 6.16968 18.5754 5.59896 21.5216H16.154C15.6882 18.8469 13.635 16.9062 11.1487 16.9062ZM101.736 22.4132C101.332 22.2389 100.197 21.9372 98.377 21.4613C96.9895 21.0993 95.425 20.687 94.8214 20.4557C94.4884 20.3661 94.1952 20.1632 93.9901 19.8805C93.785 19.5978 93.6803 19.2522 93.6931 18.9005C93.6957 18.4851 93.8229 18.0806 94.0575 17.7414C94.2921 17.4022 94.6228 17.1446 95.0051 17.0034C96.3696 16.3666 98.5869 16.7252 99.5709 17.7442C99.7152 17.8916 99.8463 18.0524 99.9775 18.2133L99.9776 18.2134C100.109 18.3743 100.21 18.495 100.332 18.629C100.746 19.09 101.31 19.3821 101.918 19.4515C102.527 19.5209 103.139 19.3628 103.643 19.0065C104.146 18.6501 104.507 18.1197 104.657 17.513C104.807 16.9064 104.738 16.2646 104.461 15.7063C104.047 14.9202 103.506 14.2109 102.861 13.6081C99.7513 10.9267 93.6111 10.9669 90.4623 13.712C89.6901 14.3834 89.079 15.2269 88.6758 16.1775C88.2727 17.1281 88.0882 18.1606 88.1368 19.1955C88.1599 20.1503 88.3969 21.087 88.8296 21.9336C89.2623 22.7802 89.8792 23.5141 90.6329 24.079C91.8966 24.9516 93.3063 25.5799 94.7919 25.9325C95.3266 26.0733 95.9662 26.1939 96.6419 26.3213C97.4157 26.4496 98.1822 26.6208 98.9379 26.8341C99.9579 27.1693 100.519 27.8396 100.512 28.7513C100.506 29.663 99.935 30.397 98.9083 30.7825C96.6287 31.6003 93.5586 31.1009 92.3713 29.2876H92.3549C92.1782 28.9742 91.9407 28.7009 91.657 28.4845C91.3733 28.2681 91.0494 28.1132 90.7051 28.0292C90.3608 27.9452 90.0033 27.9339 89.6546 27.996C89.3059 28.0581 88.9732 28.1923 88.677 28.3904C88.3808 28.5885 88.1273 28.8462 87.9319 29.1479C87.7366 29.4496 87.6036 29.7888 87.541 30.1449C87.4785 30.5009 87.4877 30.8663 87.5682 31.2185C87.6486 31.5708 87.7986 31.9026 88.0089 32.1936C89.8457 34.9755 93.1814 36.0682 95.7267 36.1553H95.7759C97.698 36.1553 100.368 35.9241 102.29 34.8146C104.878 33.3298 106.105 31.1277 105.934 28.272C105.754 25.5202 104.347 23.5427 101.736 22.4132ZM52.6998 29.0881C53.5548 28.0266 54.1024 26.7421 54.2807 25.3794H59.3975C59.2162 27.7796 58.3652 30.0764 56.9454 31.9974C55.5256 33.9185 53.5966 35.3832 51.387 36.2181C49.1774 37.053 46.7799 37.223 44.4786 36.708C42.1774 36.1929 40.0689 35.0145 38.4031 33.3122C36.7373 31.61 35.584 29.4553 35.08 27.1037C34.576 24.7521 34.7423 22.3022 35.5593 20.0442C36.3764 17.7863 37.8098 15.8151 39.6897 14.3642C41.5696 12.9134 43.8172 12.0438 46.166 11.8585V17.0939C44.8327 17.2773 43.5761 17.8379 42.5381 18.7124C41.5 19.5869 40.7219 20.7406 40.2916 22.0431C39.8612 23.3456 39.7958 24.7451 40.1026 26.0837C40.4094 27.4222 41.0763 28.6464 42.028 29.6181C42.9797 30.5898 44.1782 31.2703 45.4883 31.5828C46.7985 31.8952 48.168 31.8272 49.4423 31.3864C50.7166 30.9456 51.8449 30.1495 52.6998 29.0881Z" fill="white"/>
<path d="M59.3976 23.4287C59.1702 20.4374 57.9043 17.6276 55.8281 15.506C53.752 13.3845 51.0023 12.0908 48.075 11.8585V17.0939C49.6453 17.3103 51.1028 18.0471 52.2238 19.1914C53.3448 20.3358 54.0674 21.8243 54.2808 23.4287H59.3976Z" fill="#EA3259"/>
</g>
<defs>
<clipPath id="clip0">
<rect width="164" height="37" fill="white"/>
</clipPath>
</defs>
</svg>
